{
	"nodes":[{
		"name":"Disc.2",
		"scale":[1.0,
		1.0,
		1.0],
		"translation":[0.0,
		211.60557556152345,
		5.395351523949758e-14],
		"rotation":[-1.2246468525851679e-16,
		0.0,
		0.0,
		-1.0],
		"mesh":0
	},
	{
		"name":"Disc",
		"mesh":1
	}],
	"asset":{
		"version":"2.0",
		"generator":"Created using the official Cinema 4D glTF Exporter 1.000x290161"
	},
	"scenes":[{
		"nodes":[0,
		1]
	}],
	"meshes":[{
		"primitives":[{
			"attributes":{
				"POSITION":1,
				"NORMAL":2,
				"TEXCOORD_0":3
			},
			"indices":0,
			"material":0
		}]
	},
	{
		"primitives":[{
			"attributes":{
				"POSITION":7,
				"NORMAL":8,
				"TEXCOORD_0":9
			},
			"indices":6,
			"material":1
		}]
	}],
	"accessors":[{
		"bufferView":0,
		"type":"SCALAR",
		"componentType":5123,
		"count":708,
		"byteOffset":0,
		"min":[0],
		"max":[221]
	},
	{
		"bufferView":1,
		"type":"VEC3",
		"componentType":5126,
		"count":222,
		"byteOffset":0,
		"min":[-28.221435546875,
		-20.07230567932129,
		-27.513864517211915],
		"max":[46.5235595703125,
		7.540340900421143,
		27.513864517211915]
	},
	{
		"bufferView":1,
		"type":"VEC3",
		"componentType":5126,
		"count":222,
		"byteOffset":12,
		"min":[-0.9971182942390442,
		-1.0,
		-0.9889993071556091],
		"max":[0.999997615814209,
		1.0,
		0.9889993071556091]
	},
	{
		"bufferView":1,
		"type":"VEC2",
		"componentType":5126,
		"count":222,
		"byteOffset":24,
		"min":[0.0,
		0.0],
		"max":[1.0,
		1.0]
	},
	{
		"bufferView":2,
		"type":"SCALAR",
		"componentType":5126,
		"count":16,
		"byteOffset":0,
		"min":[0.0],
		"max":[0.5]
	},
	{
		"bufferView":2,
		"type":"VEC3",
		"componentType":5126,
		"count":16,
		"byteOffset":64,
		"min":[0.0,
		204.75991821289063,
		5.395351523949758e-14],
		"max":[0.0,
		211.66586303710938,
		5.395351523949758e-14]
	},
	{
		"bufferView":3,
		"type":"SCALAR",
		"componentType":5123,
		"count":1836,
		"byteOffset":0,
		"min":[0],
		"max":[563]
	},
	{
		"bufferView":4,
		"type":"VEC3",
		"componentType":5126,
		"count":564,
		"byteOffset":0,
		"min":[-55.27787399291992,
		-1.9082942008972169,
		-54.438079833984378],
		"max":[55.27787399291992,
		196.15928649902345,
		54.438079833984378]
	},
	{
		"bufferView":4,
		"type":"VEC3",
		"componentType":5126,
		"count":564,
		"byteOffset":12,
		"min":[-1.0,
		-1.0,
		-0.9932997822761536],
		"max":[1.0,
		1.0,
		0.9932997822761536]
	},
	{
		"bufferView":4,
		"type":"VEC2",
		"componentType":5126,
		"count":564,
		"byteOffset":24,
		"min":[0.04307975620031357,
		0.039309605956077579],
		"max":[0.970531702041626,
		0.9519453048706055]
	}],
	"samplers":[{
		"magFilter":9729,
		"minFilter":9729,
		"wrapS":10497,
		"wrapT":10497
	}],
	"bufferViews":[{
		"buffer":0,
		"byteOffset":0,
		"byteLength":1416,
		"target":34963
	},
	{
		"buffer":0,
		"byteOffset":1416,
		"byteLength":7104,
		"target":34962,
		"byteStride":32
	},
	{
		"buffer":1,
		"byteOffset":0,
		"byteLength":256
	},
	{
		"buffer":2,
		"byteOffset":0,
		"byteLength":3672,
		"target":34963
	},
	{
		"buffer":2,
		"byteOffset":3672,
		"byteLength":18048,
		"target":34962,
		"byteStride":32
	}],
	"buffers":[{
		"uri":"data:application/octet-stream;base64,",
		"byteLength":8520
	},
	{
		"uri":"data:application/octet-stream;base64,",
		"byteLength":256
	},
	{
		"uri":"data:application/octet-stream;base64,",
		"byteLength":21720
	}],
	"images":[{
		"uri":"data:image/jpeg;base64,"
	}],
	"textures":[{
		"sampler":0,
		"source":0
	}],
	"materials":[{
		"pbrMetallicRoughness":{
			"baseColorFactor":[1.0,
			1.0,
			1.0,
			1.0],
			"metallicFactor":0.0,
			"roughnessFactor":0.5
		},
		"emissiveFactor":[0.0,
		0.0,
		0.0],
		"alphaMode":"OPAQUE",
		"doubleSided":true,
		"name":"bottle_top"
	},
	{
		"pbrMetallicRoughness":{
			"baseColorTexture":{
				"index":0
			},
			"baseColorFactor":[1.0,
			1.0,
			1.0,
			1.0],
			"metallicFactor":0.0,
			"roughnessFactor":0.5
		},
		"emissiveFactor":[0.0,
		0.0,
		0.0],
		"alphaMode":"OPAQUE",
		"doubleSided":true,
		"name":"bottle_down"
	}],
	"animations":[{
		"samplers":[{
			"input":4,
			"interpolation":"LINEAR",
			"output":5
		}],
		"channels":[{
			"sampler":0,
			"target":{
				"node":0,
				"path":"translation"
			}
		}]
	}]
}