{
	"asset":{
		"generator":"Created using the official Cinema 4D glTF Exporter 1.000x290161",
		"version":"2.0"
	},
	"scenes":[{
		"nodes":[0]
	}],
	"materials":[{
		"name":"",
		"pbrMetallicRoughness":{
			"baseColorFactor":[1.0,
			1.0,
			1.0,
			1.0],
			"metallicFactor":1.0,
			"roughnessFactor":1.0
		},
		"emissiveFactor":[0.0,
		0.0,
		0.0],
		"alphaMode":"OPAQUE",
		"doubleSided":true
	}],
	"nodes":[{
		"name":"mesh",
		"mesh":0
	}],
	"meshes":[{
		"primitives":[{
			"attributes":{
				"POSITION":1,
				"NORMAL":2
			},
			"indices":0,
			"material":0
		}]
	}],
	"accessors":[{
		"bufferView":0,
		"type":"SCALAR",
		"componentType":5123,
		"count":1680,
		"byteOffset":0,
		"min":[0],
		"max":[1199]
	},
	{
		"bufferView":1,
		"type":"VEC3",
		"componentType":5126,
		"count":1200,
		"byteOffset":0,
		"min":[-5.746267318725586,
		-6.041932582855225,
		-5.84395170211792],
		"max":[5.746267318725586,
		6.041932582855225,
		5.84395170211792]
	},
	{
		"bufferView":1,
		"type":"VEC3",
		"componentType":5126,
		"count":1200,
		"byteOffset":12,
		"min":[-0.9869396686553955,
		-0.9919285774230957,
		-0.9726899862289429],
		"max":[0.9869396090507507,
		0.9919285774230957,
		0.9726899862289429]
	}],
	"bufferViews":[{
		"buffer":0,
		"byteOffset":0,
		"byteLength":3360,
		"target":34963
	},
	{
		"buffer":0,
		"byteOffset":3360,
		"byteLength":28800,
		"target":34962,
		"byteStride":24
	}],
	"buffers":[{
		"uri":"data:application/octet-stream;base64,",
		"byteLength":32160
	}]
}